<mxfile host="app.diagrams.net" agent="Mozilla/5.0 (Windows NT 10.0; Win64; x64) AppleWebKit/537.36 (KHTML, like Gecko) Chrome/128.0.0.0 Safari/537.36" version="24.7.14">
  <diagram name="Página-1" id="pzz59duLTnM8qqSw6igi">
    <mxGraphModel dx="989" dy="509" grid="1" gridSize="10" guides="1" tooltips="1" connect="1" arrows="1" fold="1" page="1" pageScale="1" pageWidth="827" pageHeight="1169" math="0" shadow="0">
      <root>
        <mxCell id="0" />
        <mxCell id="1" parent="0" />
        <mxCell id="OZCKFCdNasLnyx_NUnCS-2" value="Grafo de formación" style="text;html=1;align=center;verticalAlign=middle;whiteSpace=wrap;rounded=0;fontStyle=1" parent="1" vertex="1">
          <mxGeometry x="135" y="400" width="130" height="30" as="geometry" />
        </mxCell>
        <mxCell id="OZCKFCdNasLnyx_NUnCS-48" value="Formación final" style="text;html=1;align=center;verticalAlign=middle;whiteSpace=wrap;rounded=0;fontStyle=1" parent="1" vertex="1">
          <mxGeometry x="575" y="400" width="130" height="30" as="geometry" />
        </mxCell>
        <mxCell id="OZCKFCdNasLnyx_NUnCS-73" value="" style="shape=flexArrow;endArrow=classic;html=1;rounded=0;fillColor=#000000;strokeColor=default;" parent="1" edge="1">
          <mxGeometry width="50" height="50" relative="1" as="geometry">
            <mxPoint x="390" y="269.66" as="sourcePoint" />
            <mxPoint x="460" y="269.66" as="targetPoint" />
          </mxGeometry>
        </mxCell>
        <mxCell id="OZCKFCdNasLnyx_NUnCS-76" value="" style="group" parent="1" vertex="1" connectable="0">
          <mxGeometry x="65" y="50" width="270" height="70" as="geometry" />
        </mxCell>
        <mxCell id="OZCKFCdNasLnyx_NUnCS-31" value="3" style="ellipse;whiteSpace=wrap;html=1;aspect=fixed;flipH=0;fillColor=#f8cecc;strokeColor=#b85450;" parent="OZCKFCdNasLnyx_NUnCS-76" vertex="1">
          <mxGeometry x="10" y="30" width="40" height="40" as="geometry" />
        </mxCell>
        <mxCell id="OZCKFCdNasLnyx_NUnCS-32" value="4" style="ellipse;whiteSpace=wrap;html=1;aspect=fixed;flipH=0;fillColor=#fff2cc;strokeColor=#d6b656;" parent="OZCKFCdNasLnyx_NUnCS-76" vertex="1">
          <mxGeometry x="80" y="30" width="40" height="40" as="geometry" />
        </mxCell>
        <mxCell id="OZCKFCdNasLnyx_NUnCS-33" value="5" style="ellipse;whiteSpace=wrap;html=1;aspect=fixed;flipH=0;fillColor=#e1d5e7;strokeColor=#9673a6;" parent="OZCKFCdNasLnyx_NUnCS-76" vertex="1">
          <mxGeometry x="150" y="30" width="40" height="40" as="geometry" />
        </mxCell>
        <mxCell id="OZCKFCdNasLnyx_NUnCS-36" value="Agente 1" style="text;html=1;align=center;verticalAlign=middle;whiteSpace=wrap;rounded=0;flipH=0;" parent="OZCKFCdNasLnyx_NUnCS-76" vertex="1">
          <mxGeometry width="60" height="30" as="geometry" />
        </mxCell>
        <mxCell id="OZCKFCdNasLnyx_NUnCS-37" value="Agente 2" style="text;html=1;align=center;verticalAlign=middle;whiteSpace=wrap;rounded=0;flipH=0;" parent="OZCKFCdNasLnyx_NUnCS-76" vertex="1">
          <mxGeometry x="70" width="60" height="30" as="geometry" />
        </mxCell>
        <mxCell id="OZCKFCdNasLnyx_NUnCS-38" value="Agente 3" style="text;html=1;align=center;verticalAlign=middle;whiteSpace=wrap;rounded=0;flipH=0;" parent="OZCKFCdNasLnyx_NUnCS-76" vertex="1">
          <mxGeometry x="140" width="60" height="30" as="geometry" />
        </mxCell>
        <mxCell id="OZCKFCdNasLnyx_NUnCS-34" value="6" style="ellipse;whiteSpace=wrap;html=1;aspect=fixed;flipH=0;fillColor=#d5e8d4;strokeColor=#82b366;" parent="OZCKFCdNasLnyx_NUnCS-76" vertex="1">
          <mxGeometry x="220" y="30" width="40" height="40" as="geometry" />
        </mxCell>
        <mxCell id="OZCKFCdNasLnyx_NUnCS-39" value="Agente 4" style="text;html=1;align=center;verticalAlign=middle;whiteSpace=wrap;rounded=0;flipH=0;" parent="OZCKFCdNasLnyx_NUnCS-76" vertex="1">
          <mxGeometry x="210" y="2.5" width="60" height="25" as="geometry" />
        </mxCell>
        <mxCell id="Cd5epS66vZJor9MlAfTp-17" value="" style="group" vertex="1" connectable="0" parent="1">
          <mxGeometry x="60" y="160" width="280" height="220" as="geometry" />
        </mxCell>
        <mxCell id="OZCKFCdNasLnyx_NUnCS-19" value="" style="endArrow=none;html=1;rounded=0;" parent="Cd5epS66vZJor9MlAfTp-17" source="OZCKFCdNasLnyx_NUnCS-14" target="OZCKFCdNasLnyx_NUnCS-1" edge="1">
          <mxGeometry width="50" height="50" relative="1" as="geometry">
            <mxPoint x="50" y="200" as="sourcePoint" />
            <mxPoint x="100" y="150" as="targetPoint" />
          </mxGeometry>
        </mxCell>
        <mxCell id="OZCKFCdNasLnyx_NUnCS-21" value="" style="endArrow=none;html=1;rounded=0;" parent="Cd5epS66vZJor9MlAfTp-17" source="OZCKFCdNasLnyx_NUnCS-17" target="OZCKFCdNasLnyx_NUnCS-1" edge="1">
          <mxGeometry width="50" height="50" relative="1" as="geometry">
            <mxPoint x="20" y="80" as="sourcePoint" />
            <mxPoint x="70" y="30" as="targetPoint" />
          </mxGeometry>
        </mxCell>
        <mxCell id="OZCKFCdNasLnyx_NUnCS-22" value="" style="endArrow=none;html=1;rounded=0;" parent="Cd5epS66vZJor9MlAfTp-17" source="OZCKFCdNasLnyx_NUnCS-10" edge="1">
          <mxGeometry width="50" height="50" relative="1" as="geometry">
            <mxPoint x="-10" y="100" as="sourcePoint" />
            <mxPoint x="100" y="80" as="targetPoint" />
          </mxGeometry>
        </mxCell>
        <mxCell id="OZCKFCdNasLnyx_NUnCS-23" value="" style="endArrow=none;html=1;rounded=0;" parent="Cd5epS66vZJor9MlAfTp-17" edge="1">
          <mxGeometry width="50" height="50" relative="1" as="geometry">
            <mxPoint x="220" y="140" as="sourcePoint" />
            <mxPoint x="60" y="140" as="targetPoint" />
            <Array as="points">
              <mxPoint x="76" y="140" />
            </Array>
          </mxGeometry>
        </mxCell>
        <mxCell id="OZCKFCdNasLnyx_NUnCS-24" value="" style="endArrow=none;html=1;rounded=0;" parent="Cd5epS66vZJor9MlAfTp-17" source="OZCKFCdNasLnyx_NUnCS-16" target="OZCKFCdNasLnyx_NUnCS-14" edge="1">
          <mxGeometry width="50" height="50" relative="1" as="geometry">
            <mxPoint x="-70" y="250" as="sourcePoint" />
            <mxPoint x="-20" y="200" as="targetPoint" />
          </mxGeometry>
        </mxCell>
        <mxCell id="OZCKFCdNasLnyx_NUnCS-25" value="" style="endArrow=none;html=1;rounded=0;" parent="Cd5epS66vZJor9MlAfTp-17" source="OZCKFCdNasLnyx_NUnCS-17" target="OZCKFCdNasLnyx_NUnCS-18" edge="1">
          <mxGeometry width="50" height="50" relative="1" as="geometry">
            <mxPoint x="115" y="280" as="sourcePoint" />
            <mxPoint x="165" y="230" as="targetPoint" />
          </mxGeometry>
        </mxCell>
        <mxCell id="OZCKFCdNasLnyx_NUnCS-26" value="" style="endArrow=none;html=1;rounded=0;" parent="Cd5epS66vZJor9MlAfTp-17" target="OZCKFCdNasLnyx_NUnCS-16" edge="1">
          <mxGeometry width="50" height="50" relative="1" as="geometry">
            <mxPoint x="180" y="80" as="sourcePoint" />
            <mxPoint x="40" y="40" as="targetPoint" />
          </mxGeometry>
        </mxCell>
        <mxCell id="OZCKFCdNasLnyx_NUnCS-27" value="" style="endArrow=none;html=1;rounded=0;" parent="Cd5epS66vZJor9MlAfTp-17" source="OZCKFCdNasLnyx_NUnCS-18" edge="1">
          <mxGeometry width="50" height="50" relative="1" as="geometry">
            <mxPoint x="50" y="130" as="sourcePoint" />
            <mxPoint x="100" y="80" as="targetPoint" />
          </mxGeometry>
        </mxCell>
        <mxCell id="OZCKFCdNasLnyx_NUnCS-1" value="0" style="ellipse;whiteSpace=wrap;html=1;aspect=fixed;fillColor=#f8cecc;strokeColor=#b85450;" parent="Cd5epS66vZJor9MlAfTp-17" vertex="1">
          <mxGeometry x="120" width="40" height="40" as="geometry" />
        </mxCell>
        <mxCell id="OZCKFCdNasLnyx_NUnCS-6" value="2" style="ellipse;whiteSpace=wrap;html=1;aspect=fixed;flipH=1;flipV=1;fillColor=#e1d5e7;strokeColor=#9673a6;" parent="Cd5epS66vZJor9MlAfTp-17" vertex="1">
          <mxGeometry x="80" y="60" width="40" height="40" as="geometry" />
        </mxCell>
        <mxCell id="OZCKFCdNasLnyx_NUnCS-7" value="4" style="ellipse;whiteSpace=wrap;html=1;aspect=fixed;flipH=0;" parent="Cd5epS66vZJor9MlAfTp-17" vertex="1">
          <mxGeometry x="120" y="120" width="40" height="40" as="geometry" />
        </mxCell>
        <mxCell id="OZCKFCdNasLnyx_NUnCS-10" value="1" style="ellipse;whiteSpace=wrap;html=1;aspect=fixed;flipH=1;flipV=1;fillColor=#fff2cc;strokeColor=#d6b656;" parent="Cd5epS66vZJor9MlAfTp-17" vertex="1">
          <mxGeometry x="160" y="60" width="40" height="40" as="geometry" />
        </mxCell>
        <mxCell id="OZCKFCdNasLnyx_NUnCS-14" value="6" style="ellipse;whiteSpace=wrap;html=1;aspect=fixed;flipH=1;" parent="Cd5epS66vZJor9MlAfTp-17" vertex="1">
          <mxGeometry y="180" width="40" height="40" as="geometry" />
        </mxCell>
        <mxCell id="OZCKFCdNasLnyx_NUnCS-16" value="7" style="ellipse;whiteSpace=wrap;html=1;aspect=fixed;flipH=1;flipV=1;" parent="Cd5epS66vZJor9MlAfTp-17" vertex="1">
          <mxGeometry x="80" y="180" width="40" height="40" as="geometry" />
        </mxCell>
        <mxCell id="OZCKFCdNasLnyx_NUnCS-17" value="9" style="ellipse;whiteSpace=wrap;html=1;aspect=fixed;flipH=1;" parent="Cd5epS66vZJor9MlAfTp-17" vertex="1">
          <mxGeometry x="240" y="180" width="40" height="40" as="geometry" />
        </mxCell>
        <mxCell id="OZCKFCdNasLnyx_NUnCS-18" value="8" style="ellipse;whiteSpace=wrap;html=1;aspect=fixed;flipH=1;flipV=1;" parent="Cd5epS66vZJor9MlAfTp-17" vertex="1">
          <mxGeometry x="160" y="180" width="40" height="40" as="geometry" />
        </mxCell>
        <mxCell id="OZCKFCdNasLnyx_NUnCS-28" value="" style="endArrow=none;html=1;rounded=0;" parent="Cd5epS66vZJor9MlAfTp-17" source="OZCKFCdNasLnyx_NUnCS-16" edge="1">
          <mxGeometry width="50" height="50" relative="1" as="geometry">
            <mxPoint x="9" y="190" as="sourcePoint" />
            <mxPoint x="59" y="140" as="targetPoint" />
          </mxGeometry>
        </mxCell>
        <mxCell id="OZCKFCdNasLnyx_NUnCS-29" value="" style="endArrow=none;html=1;rounded=0;" parent="Cd5epS66vZJor9MlAfTp-17" source="OZCKFCdNasLnyx_NUnCS-18" edge="1">
          <mxGeometry width="50" height="50" relative="1" as="geometry">
            <mxPoint x="170" y="190" as="sourcePoint" />
            <mxPoint x="220" y="140" as="targetPoint" />
          </mxGeometry>
        </mxCell>
        <mxCell id="OZCKFCdNasLnyx_NUnCS-5" value="3" style="ellipse;whiteSpace=wrap;html=1;aspect=fixed;flipH=0;fillColor=#d5e8d4;strokeColor=#82b366;" parent="Cd5epS66vZJor9MlAfTp-17" vertex="1">
          <mxGeometry x="40" y="120" width="40" height="40" as="geometry" />
        </mxCell>
        <mxCell id="OZCKFCdNasLnyx_NUnCS-11" value="5" style="ellipse;whiteSpace=wrap;html=1;aspect=fixed;flipH=0;" parent="Cd5epS66vZJor9MlAfTp-17" vertex="1">
          <mxGeometry x="200" y="120" width="40" height="40" as="geometry" />
        </mxCell>
        <mxCell id="Cd5epS66vZJor9MlAfTp-5" value="" style="endArrow=none;html=1;rounded=0;" edge="1" parent="1" source="Cd5epS66vZJor9MlAfTp-10">
          <mxGeometry width="50" height="50" relative="1" as="geometry">
            <mxPoint x="490" y="260" as="sourcePoint" />
            <mxPoint x="600" y="240" as="targetPoint" />
          </mxGeometry>
        </mxCell>
        <mxCell id="Cd5epS66vZJor9MlAfTp-7" value="0" style="ellipse;whiteSpace=wrap;html=1;aspect=fixed;fillColor=#f8cecc;strokeColor=#b85450;" vertex="1" parent="1">
          <mxGeometry x="620" y="160" width="40" height="40" as="geometry" />
        </mxCell>
        <mxCell id="Cd5epS66vZJor9MlAfTp-8" value="2" style="ellipse;whiteSpace=wrap;html=1;aspect=fixed;flipH=1;flipV=1;fillColor=#e1d5e7;strokeColor=#9673a6;" vertex="1" parent="1">
          <mxGeometry x="580" y="220" width="40" height="40" as="geometry" />
        </mxCell>
        <mxCell id="Cd5epS66vZJor9MlAfTp-10" value="1" style="ellipse;whiteSpace=wrap;html=1;aspect=fixed;flipH=1;flipV=1;fillColor=#fff2cc;strokeColor=#d6b656;" vertex="1" parent="1">
          <mxGeometry x="660" y="220" width="40" height="40" as="geometry" />
        </mxCell>
        <mxCell id="Cd5epS66vZJor9MlAfTp-11" value="3" style="ellipse;whiteSpace=wrap;html=1;aspect=fixed;flipH=0;fillColor=#d5e8d4;strokeColor=#82b366;" vertex="1" parent="1">
          <mxGeometry x="540" y="280" width="40" height="40" as="geometry" />
        </mxCell>
        <mxCell id="Cd5epS66vZJor9MlAfTp-13" value="" style="endArrow=none;html=1;rounded=0;" edge="1" parent="1" source="Cd5epS66vZJor9MlAfTp-7" target="Cd5epS66vZJor9MlAfTp-8">
          <mxGeometry width="50" height="50" relative="1" as="geometry">
            <mxPoint x="380" y="200" as="sourcePoint" />
            <mxPoint x="430" y="150" as="targetPoint" />
          </mxGeometry>
        </mxCell>
        <mxCell id="Cd5epS66vZJor9MlAfTp-14" value="" style="endArrow=none;html=1;rounded=0;" edge="1" parent="1" source="Cd5epS66vZJor9MlAfTp-10" target="Cd5epS66vZJor9MlAfTp-7">
          <mxGeometry width="50" height="50" relative="1" as="geometry">
            <mxPoint x="380" y="200" as="sourcePoint" />
            <mxPoint x="430" y="150" as="targetPoint" />
          </mxGeometry>
        </mxCell>
        <mxCell id="Cd5epS66vZJor9MlAfTp-15" value="" style="endArrow=none;html=1;rounded=0;" edge="1" parent="1" source="Cd5epS66vZJor9MlAfTp-11" target="Cd5epS66vZJor9MlAfTp-8">
          <mxGeometry width="50" height="50" relative="1" as="geometry">
            <mxPoint x="380" y="200" as="sourcePoint" />
            <mxPoint x="430" y="150" as="targetPoint" />
          </mxGeometry>
        </mxCell>
      </root>
    </mxGraphModel>
  </diagram>
</mxfile>
